HIERARCHY
ROOT WRIST
{
	OFFSET 0.000000 0.000000 0.000000
	CHANNELS 6 Xposition Yposition Zposition Yrotation Xrotation Zrotation
	JOINT THUMB_CMC_FE
	{
		OFFSET 0.225143 0.117753 -0.062308
		CHANNELS 3 Yrotation Xrotation Zrotation
		JOINT THUMB_CMC_AA
		{
			OFFSET 0.212856 -0.150507 0.098851
			CHANNELS 3 Yrotation Xrotation Zrotation
			JOINT THUMB_MCP_FE
			{
				OFFSET -0.322503 -0.167445 -0.031436
				CHANNELS 3 Yrotation Xrotation Zrotation
				JOINT THUMB_IP_FE
				{
					OFFSET 0.295233 -0.236404 0.025845
					CHANNELS 3 Yrotation Xrotation Zrotation
					End Site
					{
						OFFSET 0.000000 0.000000 0.000000
					}
				}
			}
		}
	}
	JOINT INDEX_MCP
	{
		OFFSET 1.076913 0.264198 -0.014768
		CHANNELS 3 Yrotation Xrotation Zrotation
		JOINT INDEX_PIP_FE
		{
			OFFSET 0.425053 0.013289 0.013619
			CHANNELS 3 Yrotation Xrotation Zrotation
			JOINT INDEX_DIP_FE
			{
				OFFSET 0.271505 -0.024898 0.000550
				CHANNELS 3 Yrotation Xrotation Zrotation
				End Site
				{
					OFFSET 0.000000 0.000000 0.000000
				}
			}
		}
	}
	JOINT MIDDLE_MCP
	{
		OFFSET 1.072991 0.019362 0.038780
		CHANNELS 3 Yrotation Xrotation Zrotation
		JOINT MIDDLE_PIP_FE
		{
			OFFSET 0.480704 0.002618 0.028696
			CHANNELS 3 Yrotation Xrotation Zrotation
			JOINT MIDDLE_DIP_FE
			{
				OFFSET 0.307486 -0.031129 -0.000643
				CHANNELS 3 Yrotation Xrotation Zrotation
				End Site
				{
					OFFSET 0.000000 0.000000 0.000000
				}
			}
		}
	}
	JOINT RING_MCP
	{
		OFFSET 0.994992 -0.195930 -0.005938
		CHANNELS 3 Yrotation Xrotation Zrotation
		JOINT RING_PIP_FE
		{
			OFFSET 0.436995 0.003792 0.019994
			CHANNELS 3 Yrotation Xrotation Zrotation
			JOINT RING_DIP_FE
			{
				OFFSET 0.295558 -0.038341 -0.006642
				CHANNELS 3 Yrotation Xrotation Zrotation
				End Site
				{
					OFFSET 0.000000 0.000000 0.000000
				}
			}
		}
	}
	JOINT PINKY_MCP
	{
		OFFSET 0.873858 -0.393246 -0.086282
		CHANNELS 3 Yrotation Xrotation Zrotation
		JOINT PINKY_PIP_FE
		{
			OFFSET 0.343972 -0.016492 0.013445
			CHANNELS 3 Yrotation Xrotation Zrotation
			JOINT PINKY_DIP_FE
			{
				OFFSET 0.224713 -0.036309 -0.010265
				CHANNELS 3 Yrotation Xrotation Zrotation
				End Site
				{
					OFFSET 0.000000 0.000000 0.000000
				}
			}
		}
	}
}
MOTION
Frames: 16
Frame Time: 0.008333334
-1.031481 0.404604 1.801812 -175.827800 -43.712430 4.687252 61.461170 4.834478 73.301050 119.254200 -30.998840 29.346790 -113.637900 -65.594730 -33.075350 4.530701 -8.250000 15.906330 -178.325500 3.341254 -169.560500 -41.907100 -86.126830 32.153160 -2.066315 1.702523 -37.264590 -178.197300 -1.015289 -167.258900 -39.424960 -88.412900 4.484752 -6.142578 4.397683 -2.290070 171.066000 -3.262573 -166.800400 -31.413760 -85.604610 -2.069061 0.210894 0.587900 3.414303 160.862000 -6.213013 -163.923300 -47.808960 -83.389190 29.404390 5.539797 0.809164 3.392808 
-1.059821 0.392684 1.835271 -176.598800 -43.782900 4.605005 61.461160 4.834475 73.125530 119.265800 -30.996120 29.605710 -113.544600 -65.622770 -32.548980 4.535069 -8.274750 16.315150 -178.885900 3.356356 -169.506000 -41.915280 -86.126770 32.139490 -2.064667 1.702819 -37.219180 -178.607700 -0.966583 -167.169400 -39.402400 -88.412780 4.487129 -6.126068 4.397325 -1.776337 170.599100 -3.143402 -166.793700 -31.421480 -85.606200 -1.938812 0.209552 0.584899 3.638750 160.369400 -6.040253 -164.015900 -47.946040 -83.405760 30.040080 5.539798 0.809161 3.392805 
-1.085795 0.379592 1.867442 -177.462500 -43.674960 4.659294 61.461160 4.834476 72.950020 119.278200 -30.993230 29.864080 -113.445400 -65.653260 -32.028500 4.539507 -8.301270 16.722630 -179.445900 3.371983 -169.451800 -41.924010 -86.126530 32.126350 -2.062927 1.703138 -37.173890 -179.017800 -0.917236 -167.080300 -39.378910 -88.412780 4.488334 -6.108368 4.396973 -1.262390 170.132500 -3.024231 -166.787900 -31.429720 -85.607910 -1.808289 0.208109 0.581707 3.862477 159.877000 -5.868378 -164.110000 -48.092960 -83.423650 30.685780 5.539801 0.809159 3.392807 
-1.111999 0.372017 1.895311 -177.591500 -43.682530 4.201536 61.461160 4.834475 72.774530 119.291500 -30.990230 30.121880 -113.340400 -65.686220 -31.513920 4.544007 -8.329529 17.128670 179.994400 3.388128 -169.397700 -41.933470 -86.126400 32.114040 -2.061096 1.703478 -37.128690 -179.427700 -0.867279 -166.991700 -39.353970 -88.412410 4.488190 -6.089508 4.396660 -0.748200 169.666200 -2.905060 -166.783200 -31.438600 -85.609650 -1.677368 0.206560 0.578332 4.085431 159.384700 -5.697449 -164.205400 -48.249600 -83.442660 31.341380 5.539800 0.809163 3.392806 
-1.134937 0.361277 1.925156 -178.273900 -43.578000 4.223135 61.461170 4.834472 72.599040 119.305500 -30.987090 30.379090 -113.229700 -65.721680 -31.005220 4.548520 -8.359558 17.533200 179.435200 3.404785 -169.343800 -41.943510 -86.126220 32.102360 -2.059143 1.703846 -37.083590 -179.837400 -0.816711 -166.903400 -39.327480 -88.411930 4.486443 -6.069519 4.396327 -0.233765 169.200100 -2.785950 -166.779300 -31.448030 -85.611630 -1.546143 0.204918 0.574779 4.307560 158.892600 -5.527435 -164.302200 -48.416200 -83.462800 32.007160 5.539802 0.809157 3.392808 
-1.156648 0.353598 1.949684 -178.396000 -43.664950 3.928745 61.461160 4.834473 72.423580 119.320500 -30.983860 30.635750 -113.113400 -65.759670 -30.502380 4.553059 -8.391266 17.936140 178.876500 3.421949 -169.290100 -41.954380 -86.126010 32.091550 -2.057068 1.704221 -37.038570 179.753200 -0.765533 -166.815500 -39.299770 -88.411930 4.483434 -6.048340 4.396012 0.280920 168.734400 -2.666870 -166.776500 -31.457950 -85.613490 -1.414703 0.203149 0.571002 4.528819 158.400800 -5.358398 -164.400400 -48.592960 -83.484250 32.683260 5.539802 0.809141 3.392811 
-1.176857 0.344703 1.975856 -178.884300 -43.765320 3.911874 61.461160 4.834476 72.248130 119.336300 -30.980470 30.891800 -112.991400 -65.800200 -30.005430 4.557583 -8.424713 18.337370 178.318200 3.439621 -169.236600 -41.965880 -86.125790 32.081420 -2.054901 1.704612 -36.993680 179.344100 -0.713776 -166.728100 -39.270360 -88.411440 4.478662 -6.026001 4.395720 0.795864 168.269100 -2.547821 -166.774600 -31.468410 -85.615540 -1.283020 0.201283 0.567057 4.749148 157.909100 -5.190338 -164.499900 -48.780060 -83.506840 33.369990 5.539803 0.809158 3.392809 
-1.194651 0.334637 2.000321 -179.505000 -43.915160 4.046622 61.461180 4.834465 72.254040 119.352900 -30.976930 31.368300 -112.864000 -65.843260 -29.660100 4.562087 -8.459839 18.374030 178.050800 3.457315 -169.364200 -41.978180 -86.125670 31.445000 -2.052612 1.704979 -37.440220 179.259900 -0.693512 -166.882900 -39.240910 -88.411320 3.934004 -6.002533 4.395444 1.151335 168.226000 -2.539948 -166.913300 -31.479710 -85.617830 -1.061493 0.199304 0.562931 4.968522 157.323000 -4.985504 -164.728900 -48.977570 -83.530640 33.496890 5.539804 0.809180 3.392802 
-1.211342 0.323721 2.022781 179.925000 -43.989690 4.282302 61.461160 4.834480 72.082120 119.352900 -30.976960 31.334570 -112.864000 -65.843260 -29.648830 4.562068 -8.459839 18.379300 178.214600 3.456998 -169.200500 -41.978180 -86.125670 30.829940 -2.052612 1.704987 -37.760250 179.506500 -0.717865 -166.879600 -39.241640 -88.411440 3.509675 -6.002502 4.395463 0.958001 168.130800 -2.514923 -166.952700 -31.479680 -85.617830 -1.710846 0.199305 0.562939 4.968526 157.116900 -4.903320 -164.797000 -48.977600 -83.530550 33.411710 5.539814 0.809131 3.392801 
-1.227327 0.312466 2.046292 179.017000 -43.911530 4.675350 61.461160 4.834470 71.891300 119.352900 -30.976930 31.708850 -112.864000 -65.843260 -29.751890 4.562085 -8.459869 17.813840 178.791100 3.455678 -169.136700 -41.978300 -86.125610 29.984600 -2.052612 1.704998 -38.558230 179.989500 -0.765564 -166.887400 -39.241240 -88.411320 2.688006 -6.002533 4.395422 0.857102 168.144300 -2.518463 -166.977300 -31.479740 -85.617800 -2.663422 0.199311 0.562931 4.968520 156.472900 -4.645905 -164.823100 -48.977630 -83.530640 32.387870 5.539804 0.809164 3.392799 
-1.240961 0.300437 2.067519 178.224700 -43.983310 5.107990 61.461180 4.834478 71.688050 119.352900 -30.976960 31.635070 -112.864000 -65.843260 -30.209960 4.562065 -8.459839 18.895490 179.063800 3.454914 -168.889100 -41.978330 -86.125670 28.415040 -2.052612 1.704986 -39.281430 -179.531400 -0.812805 -166.702300 -39.241150 -88.411320 2.489561 -6.002533 4.395422 -0.244354 168.176900 -2.527039 -166.769200 -31.479610 -85.617860 -3.528656 0.199298 0.562908 4.968528 156.204100 -4.538239 -164.535000 -48.977750 -83.530610 31.297370 5.539810 0.809153 3.392803 
-1.253602 0.288731 2.089295 177.266900 -44.026370 5.546494 61.461170 4.834470 71.355090 119.352900 -30.976960 31.876160 -112.864000 -65.843260 -29.606660 4.562064 -8.459839 17.596590 179.784300 3.452570 -168.800400 -41.978330 -86.125550 27.929200 -2.052643 1.705012 -39.810360 -178.927000 -0.872315 -166.716200 -39.241210 -88.411440 1.457578 -6.002533 4.395424 -0.295776 168.806900 -2.692657 -166.726400 -31.479740 -85.617830 -3.351868 0.199304 0.562925 4.968517 156.407900 -4.619843 -164.417800 -48.977690 -83.530640 31.173300 5.539803 0.809161 3.392798 
-1.265311 0.277925 2.110255 176.478000 -43.876530 5.888802 61.461170 4.834475 70.843830 119.352900 -30.976960 32.111950 -112.864000 -65.843260 -29.244840 4.562073 -8.459839 17.622120 -179.728100 3.450654 -168.700100 -41.978210 -86.125550 26.768940 -2.052612 1.704992 -40.884400 -178.132900 -0.950409 -166.668200 -39.241360 -88.411440 0.964153 -6.002533 4.395431 -0.803253 168.817600 -2.695465 -166.624700 -31.479550 -85.617800 -4.154694 0.199309 0.562946 4.968523 156.343400 -4.594025 -164.449300 -48.977690 -83.530640 31.011770 5.539801 0.809177 3.392804 
-1.276585 0.266801 2.127676 175.867000 -44.164090 6.216453 61.461180 4.834475 70.818040 119.352900 -30.976930 32.173750 -112.864000 -65.843260 -29.270900 4.562080 -8.459839 17.566730 -179.308400 3.448812 -168.650600 -41.978390 -86.125700 25.810030 -2.052612 1.705021 -41.465820 -177.576500 -1.004974 -166.569400 -39.241490 -88.411680 -0.235687 -6.002502 4.395448 -1.035309 168.642800 -2.649536 -166.584900 -31.479640 -85.617740 -5.420746 0.199307 0.562921 4.968525 156.227000 -4.547394 -164.223900 -48.977720 -83.530610 30.715090 5.539806 0.809166 3.392804 
-1.286565 0.255794 2.143900 175.288600 -44.298000 6.553138 61.461160 4.834466 70.570240 119.352900 -30.976960 32.271260 -112.864000 -65.843260 -29.280150 4.562064 -8.459839 17.921070 -178.689800 3.445774 -168.687100 -41.978390 -86.125550 24.879470 -2.052612 1.705001 -42.409270 -176.801400 -1.080841 -166.551700 -39.241210 -88.411440 -0.918701 -6.002533 4.395440 -2.231354 168.949500 -2.730103 -166.631300 -31.479740 -85.617800 -5.829620 0.199311 0.562935 4.968524 156.154200 -4.518219 -164.298000 -48.977660 -83.530640 30.066880 5.539797 0.809166 3.392801 
-1.296087 0.245147 2.159302 174.731000 -44.283110 6.970322 61.461160 4.834475 70.182850 119.352900 -30.976930 32.348550 -112.864000 -65.843260 -29.181850 4.562089 -8.459869 17.968870 -178.222500 3.443192 -168.544600 -41.978150 -86.125550 23.867950 -2.052612 1.704993 -43.311130 -176.018600 -1.157288 -166.426700 -39.241150 -88.411320 -1.641541 -6.002533 4.395438 -2.734009 169.060500 -2.759247 -166.502000 -31.479610 -85.617740 -6.459778 0.199305 0.562919 4.968524 156.422600 -4.625763 -164.186100 -48.977690 -83.530580 30.984090 5.539806 0.809177 3.392800 
